<?xml version="1.0" encoding="UTF-8"?>
<svg id="Layer_2" data-name="Layer 2" xmlns="http://www.w3.org/2000/svg" viewBox="0 0 440.99 81.67">
  <defs>
    <style>
      .cls-1 {
        fill: #000;
        stroke-width: 0px;
      }
    </style>
  </defs>
  <g id="Layer_1-2" data-name="Layer 1">
    <g>
      <path class="cls-1" d="M24.27,31c2.73,0,5.44.31,8.1.94,2.68.61,4.67,1.23,5.98,1.85l1.96.94-5.4,10.81c-3.74-1.98-7.29-2.98-10.65-2.98-1.88,0-3.2.2-3.98.6-.78.41-1.17,1.17-1.17,2.29,0,.25.03.5.08.75.07.25.19.49.38.71.19.21.36.39.52.54.17.16.43.33.79.52.38.18.67.32.9.42.22.1.57.24,1.06.44.5.18.88.32,1.13.42.25.08.67.22,1.25.42.59.18,1.05.3,1.38.35,1.93.57,3.61,1.2,5.04,1.88,1.43.68,2.94,1.62,4.52,2.81,1.58,1.18,2.81,2.68,3.69,4.48.88,1.79,1.31,3.84,1.31,6.15,0,10.89-7.56,16.33-22.69,16.33-3.42,0-6.67-.53-9.75-1.58s-5.31-2.11-6.67-3.17l-2.06-1.69,6.73-11.29c.48.43,1.13.95,1.94,1.54.82.58,2.28,1.39,4.4,2.42,2.13,1.03,3.96,1.54,5.52,1.54,3.42,0,5.13-1.15,5.13-3.44,0-1.07-.44-1.9-1.31-2.48-.86-.59-2.34-1.26-4.44-2-2.08-.75-3.72-1.44-4.9-2.06-2.99-1.55-5.35-3.31-7.1-5.27-1.74-1.96-2.6-4.55-2.6-7.79,0-4.86,1.88-8.64,5.65-11.33,3.76-2.71,8.85-4.06,15.27-4.06Z"/>
      <path class="cls-1" d="M42.1,80.27V0h16.52v37.44h.19c4.29-4.29,8.86-6.44,13.71-6.44,2.38,0,4.73.31,7.06.94,2.33.61,4.57,1.57,6.71,2.88,2.15,1.31,3.9,3.16,5.23,5.56,1.33,2.39,2,5.18,2,8.35v31.54h-16.52v-27.06c0-2.48-.79-4.66-2.38-6.52-1.58-1.88-3.66-2.81-6.21-2.81s-4.74.97-6.77,2.9c-2.02,1.93-3.02,4.08-3.02,6.44v27.06h-16.52Z"/>
      <path class="cls-1" d="M98.09,5.71c1.93-1.93,4.23-2.9,6.9-2.9s4.98.97,6.92,2.9c1.93,1.92,2.9,4.22,2.9,6.9s-.97,4.99-2.9,6.92c-1.93,1.92-4.24,2.88-6.92,2.88s-4.97-.96-6.9-2.88c-1.93-1.93-2.9-4.23-2.9-6.92s.96-4.98,2.9-6.9ZM96.51,32.4v47.88h16.52v-47.88h-16.52Z"/>
      <path class="cls-1" d="M117.41,80.27v-47.88h16.52v5.04h.19c4.29-4.29,8.86-6.44,13.71-6.44,2.38,0,4.73.31,7.06.94,2.33.61,4.57,1.57,6.71,2.88,2.15,1.31,3.9,3.16,5.23,5.56,1.33,2.39,2,5.18,2,8.35v31.54h-16.52v-27.06c0-2.48-.79-4.66-2.38-6.52-1.58-1.88-3.66-2.81-6.21-2.81s-4.74.97-6.77,2.9c-2.02,1.93-3.02,4.08-3.02,6.44v27.06h-16.52Z"/>
      <path class="cls-1" d="M220.26,58.63h-34.73c0,3.36,1.09,5.85,3.27,7.48,2.18,1.61,4.55,2.42,7.1,2.42s4.78-.36,6.33-1.08c1.55-.72,3.33-2.14,5.33-4.25l11.94,5.98c-4.97,8.33-13.25,12.5-24.83,12.5-7.21,0-13.4-2.47-18.56-7.42-5.17-4.94-7.75-10.9-7.75-17.88s2.58-12.94,7.75-17.92c5.17-4.97,11.35-7.46,18.56-7.46,7.59,0,13.77,2.2,18.52,6.58,4.76,4.38,7.15,10.64,7.15,18.79,0,1.13-.03,1.88-.08,2.25ZM186.01,49.48h18.19c-.38-2.5-1.35-4.42-2.94-5.75s-3.62-2-6.1-2c-2.74,0-4.92.72-6.54,2.15-1.61,1.43-2.48,3.3-2.6,5.6Z"/>
      <path class="cls-1" d="M220.82,80.27v-47.88h16.52v5.04h.19c4.29-4.29,8.86-6.44,13.71-6.44,2.38,0,4.73.31,7.06.94,2.33.61,4.57,1.57,6.71,2.88,2.15,1.31,3.9,3.16,5.23,5.56,1.33,2.39,2,5.18,2,8.35v31.54h-16.52v-27.06c0-2.48-.79-4.66-2.38-6.52-1.58-1.88-3.66-2.81-6.21-2.81s-4.74.97-6.77,2.9c-2.02,1.93-3.02,4.08-3.02,6.44v27.06h-16.52Z"/>
      <path class="cls-1" d="M334.16,74.58c-5.32-4.73-7.98-10.8-7.98-18.21s2.76-13.48,8.29-18.23c5.54-4.76,12.39-7.15,20.54-7.15s14.79,2.4,20.29,7.19c5.51,4.78,8.27,10.84,8.27,18.19s-2.7,13.41-8.08,18.17c-5.38,4.75-12.2,7.13-20.48,7.13s-15.54-2.36-20.85-7.08ZM346.93,48.27c-2.14,2.11-3.21,4.82-3.21,8.13s1.03,5.98,3.08,8.06c2.05,2.08,4.76,3.13,8.13,3.13s5.9-1.05,7.98-3.17c2.08-2.13,3.13-4.8,3.13-8.04s-1.08-5.99-3.23-8.1c-2.14-2.13-4.77-3.19-7.88-3.19s-5.85,1.06-8,3.19Z"/>
      <path class="cls-1" d="M438.74,32.4l-22.77,22.85,25.02,25.02h-21.29l-19.13-19.13v19.13h-16.52V0h16.52v49.1l16.71-16.71h21.46Z"/>
      <g>
        <path class="cls-1" d="M274.05,56.69c8.06-1.75,13.3-3.52,16.98-6.57.42-.66.91-1.28,1.49-1.85.41-.4.84-.75,1.28-1.08,2.7-3.62,4.36-8.66,5.99-16.16-7.79.16-14.37,2.52-19.73,7.12-5.53,4.75-8.29,10.83-8.29,18.23,0,.11,0,.21,0,.32h2.27Z"/>
        <path class="cls-1" d="M307.19,47.24c.42.31.82.65,1.21,1.03.57.56,1.06,1.16,1.47,1.8,3.68,3.08,8.93,4.87,17.04,6.62h2.25c0-.11,0-.21,0-.32,0-7.34-2.76-13.41-8.27-18.19-5.37-4.68-11.95-7.06-19.73-7.17,1.63,7.53,3.3,12.59,6.02,16.22Z"/>
        <path class="cls-1" d="M274.05,58.02h-2.23c.37,6.66,3.01,12.18,7.93,16.56,5.05,4.48,11.59,6.81,19.58,7.04-3.74-16.06-8.13-19.89-25.28-23.6Z"/>
        <path class="cls-1" d="M326.91,58.02c-17.16,3.71-21.54,7.54-25.28,23.61,7.81-.19,14.31-2.54,19.45-7.09,4.98-4.4,7.65-9.91,8.03-16.52h-2.2Z"/>
      </g>
    </g>
  </g>
</svg>